<svg xmlns="http://www.w3.org/2000/svg" version="1.1" xmlns:xlink="http://www.w3.org/1999/xlink" xmlns:svgjs="http://svgjs.dev/svgjs" width="100%" height="100%" viewBox="0 0 1000 600"><rect width="1000" height="600" x="0" y="0" fill="#ffffff"/><g><circle r="166.66666666666666" cx="482.74515787760413" cy="504.9675624173559" fill="#e63946" transform="matrix(0.3954711587355752,0,0,0.3954711587355752,0,100.29988374255184)"/><path d="M436.21755010515824 579.7595345974946L413.09490354731963 579.7595345974946L413.09490354731963 429.96758260327044L495.89656589968246 429.96758260327044Q509.1816854515512 429.96758260327044 520.0891549717655 436.06031080938465Q530.9966244919799 442.15303901549896 537.6243239552164 452.7633022817565Q544.2817440438486 463.34384492261836 544.2817440438486 476.3911994713216L544.2817440438486 476.3911994713216Q544.2817440438486 489.4682746454206 537.0893526980941 500.3757441656349Q529.9266819777354 511.28321368584926 518.2761968226291 517.8217512728987Q506.5959910421271 524.3305682345525 492.47869397917935 524.3305682345525L492.47869397917935 524.3305682345525L436.21755010515824 524.3305682345525L436.21755010515824 579.7595345974946ZM552.395474776869 579.9675789752644L523.7150712700384 579.7595345974946L475.359613751268 512.145111822324L499.7602472011208 506.7953992511017L552.395474776869 579.9675789752644ZM436.21755010515824 452.22833102463426L436.21755010515824 502.06981981318864L491.20070708716514 502.06981981318864Q498.8983490646461 502.06981981318864 505.43688665169554 498.5627860164985Q511.94570361334934 495.0260315944126 515.9282674163703 489.1413477660681Q519.8811105939958 483.2566639377236 519.8811105939958 476.1831550935519L519.8811105939958 476.1831550935519Q519.8811105939958 469.5554556303154 515.8093849147876 464.08686055751036Q511.7376592355796 458.64798611010104 504.90191539457334 455.4381585673676Q498.0364509281714 452.22833102463426 489.9227201951509 452.22833102463426L489.9227201951509 452.22833102463426L436.21755010515824 452.22833102463426Z " fill="#ffffff" transform="matrix(0.3954711587355752,0,0,0.3954711587355752,0,100.29988374255184)"/><path d="M754.3562984941414 577.9675823068153L732.7451873830303 577.9675823068153L732.7451873830303 437.9675823068154L810.1340762719192 437.9675823068154Q822.5507429385859 437.9675823068154 832.7451873830303 443.6620267512598Q842.9396318274747 449.3564711957043 849.1340762719192 459.27313786237096Q855.3562984941414 469.1620267512598 855.3562984941414 481.3564711957043L855.3562984941414 481.3564711957043Q855.3562984941414 493.5786934179265 848.6340762719192 503.77313786237096Q841.9396318274747 513.9675823068153 831.0507429385859 520.0786934179264Q820.1340762719192 526.1620267512599 806.9396318274747 526.1620267512599L806.9396318274747 526.1620267512599L754.3562984941414 526.1620267512599L754.3562984941414 577.9675823068153ZM862.9396318274747 578.1620267512599L836.1340762719192 577.9675823068153L790.9396318274747 514.773137862371L813.7451873830303 509.77313786237096L862.9396318274747 578.1620267512599ZM754.3562984941414 458.77313786237096L754.3562984941414 505.3564711957043L805.7451873830303 505.3564711957043Q812.9396318274747 505.3564711957043 819.0507429385859 502.0786934179265Q825.1340762719192 498.7731378623709 828.8562984941414 493.27313786237096Q832.5507429385858 487.77313786237096 832.5507429385858 481.1620267512598L832.5507429385858 481.1620267512598Q832.5507429385858 474.9675823068154 828.7451873830303 469.8564711957043Q824.9396318274747 464.77313786237096 818.5507429385859 461.77313786237096Q812.1340762719192 458.77313786237096 804.5507429385858 458.77313786237096L804.5507429385858 458.77313786237096L754.3562984941414 458.77313786237096ZM965.3562984941414 579.9675823068153L965.3562984941414 579.9675823068153Q947.5507429385858 579.9675823068153 934.1340762719192 572.9675823068153Q920.7451873830303 565.9675823068153 913.4396318274748 553.5786934179265Q906.1340762719192 541.1620267512599 906.1340762719192 525.3564711957042L906.1340762719192 525.3564711957042Q906.1340762719192 509.3564711957043 913.8562984941414 497.0786934179265Q921.5507429385858 484.77313786237096 935.3562984941414 477.77313786237096Q949.1340762719192 470.7731378623709 966.7451873830303 470.7731378623709L966.7451873830303 470.7731378623709Q977.7451873830303 470.7731378623709 987.0507429385858 473.3564711957043Q996.3562984941414 475.96758230681536 1003.3562984941414 480.3564711957043Q1010.3562984941414 484.77313786237096 1014.2451873830303 489.8564711957043Q1018.1340762719192 494.96758230681536 1018.3562984941414 500.1620267512598L1018.3562984941414 500.1620267512598L1012.5507429385859 500.1620267512598L1012.5507429385859 472.9675823068154L1033.1340762719192 472.9675823068154L1033.1340762719192 577.9675823068153L1012.5507429385859 577.9675823068153L1012.5507429385859 549.773137862371L1016.7451873830303 550.773137862371Q1016.5507429385859 555.5786934179265 1012.2451873830303 560.6620267512599Q1007.9396318274748 565.773137862371 1000.8562984941414 570.1620267512599Q993.7451873830303 574.5786934179265 984.5507429385858 577.273137862371Q975.3562984941414 579.9675823068153 965.3562984941414 579.9675823068153ZM970.1340762719192 560.9675823068153L970.1340762719192 560.9675823068153Q982.9396318274748 560.9675823068153 992.7451873830303 556.273137862371Q1002.5507429385859 551.5786934179265 1007.9396318274748 543.4675823068153Q1013.3562984941414 535.3564711957042 1013.3562984941414 525.3564711957042L1013.3562984941414 525.3564711957042Q1013.3562984941414 515.3564711957042 1007.9396318274748 507.3564711957043Q1002.5507429385859 499.3564711957043 992.7451873830303 494.6620267512598Q982.9396318274748 489.96758230681536 970.1340762719192 489.96758230681536L970.1340762719192 489.96758230681536Q957.5507429385858 489.96758230681536 947.8562984941414 494.6620267512598Q938.1340762719192 499.3564711957043 932.6340762719192 507.3564711957043Q927.1340762719192 515.3564711957042 927.1340762719192 525.3564711957042L927.1340762719192 525.3564711957042Q927.1340762719192 535.3564711957042 932.6340762719192 543.4675823068153Q938.1340762719192 551.5786934179265 947.8562984941414 556.273137862371Q957.5507429385858 560.9675823068153 970.1340762719192 560.9675823068153ZM1123.7451873830303 577.9675823068153L1102.9396318274748 577.9675823068153L1102.9396318274748 472.9675823068154L1123.7451873830303 472.9675823068154L1123.7451873830303 501.77313786237096L1116.7451873830303 500.96758230681536Q1118.550742938586 496.3564711957043 1122.9396318274748 491.1620267512598Q1127.3562984941414 485.9675823068154 1134.1340762719192 481.46758230681536Q1140.9396318274748 476.96758230681536 1149.8562984941414 474.0786934179265Q1158.7451873830303 471.1620267512598 1169.1340762719192 471.1620267512598L1169.1340762719192 471.1620267512598Q1179.7451873830303 471.1620267512598 1188.550742938586 474.6620267512598Q1197.3562984941414 478.1620267512598 1202.8562984941414 485.1620267512598Q1208.3562984941414 492.1620267512598 1209.3562984941414 502.96758230681536L1209.3562984941414 502.96758230681536L1202.9396318274748 501.5786934179265L1204.3562984941414 498.1620267512598Q1206.9396318274748 494.3564711957043 1211.6340762719192 489.6620267512598Q1216.3562984941414 484.9675823068154 1223.0507429385857 480.8564711957043Q1229.7451873830303 476.77313786237096 1237.8562984941414 473.9675823068154Q1245.9396318274748 471.1620267512598 1254.9396318274748 471.1620267512598L1254.9396318274748 471.1620267512598Q1271.1340762719192 471.1620267512598 1280.6340762719192 477.0786934179265Q1290.1340762719192 482.96758230681536 1294.2451873830303 493.27313786237096Q1298.3562984941414 503.5786934179265 1298.3562984941414 516.5786934179265L1298.3562984941414 516.5786934179265L1298.3562984941414 577.9675823068153L1277.5507429385857 577.9675823068153L1277.5507429385857 519.3564711957042Q1277.5507429385857 510.5786934179265 1274.8562984941414 503.96758230681536Q1272.1340762719192 497.3564711957043 1266.2451873830303 493.77313786237096Q1260.3562984941414 490.1620267512598 1250.9396318274748 490.1620267512598L1250.9396318274748 490.1620267512598Q1242.5507429385857 490.1620267512598 1235.2451873830305 492.8564711957043Q1227.9396318274748 495.5786934179265 1222.3562984941414 500.3564711957043Q1216.7451873830303 505.1620267512598 1213.7451873830303 511.3564711957043Q1210.7451873830303 517.5786934179265 1210.7451873830303 524.773137862371L1210.7451873830303 524.773137862371L1210.7451873830303 577.9675823068153L1189.9396318274748 577.9675823068153L1189.9396318274748 518.9675823068154Q1189.9396318274748 510.3564711957043 1186.8562984941414 503.8564711957043Q1183.7451873830303 497.3564711957043 1177.050742938586 493.77313786237096Q1170.3562984941414 490.1620267512598 1159.7451873830303 490.1620267512598L1159.7451873830303 490.1620267512598Q1151.9396318274748 490.1620267512598 1145.3562984941414 493.0786934179265Q1138.7451873830303 495.96758230681536 1133.8562984941414 500.5786934179265Q1128.9396318274748 505.1620267512598 1126.3562984941414 510.6620267512598Q1123.7451873830303 516.1620267512599 1123.7451873830303 521.1620267512599L1123.7451873830303 521.1620267512599L1123.7451873830303 577.9675823068153ZM1412.9396318274748 579.9675823068153L1412.9396318274748 579.9675823068153Q1395.1340762719192 579.9675823068153 1381.7451873830303 572.9675823068153Q1368.3562984941414 565.9675823068153 1361.0507429385857 553.5786934179265Q1353.7451873830303 541.1620267512599 1353.7451873830303 525.3564711957042L1353.7451873830303 525.3564711957042Q1353.7451873830303 509.3564711957043 1361.4396318274748 497.0786934179265Q1369.1340762719192 484.77313786237096 1382.9396318274748 477.77313786237096Q1396.74518738303 470.7731378623709 1414.3562984941414 470.7731378623709L1414.3562984941414 470.7731378623709Q1425.3562984941414 470.7731378623709 1434.6340762719192 473.3564711957043Q1443.9396318274748 475.96758230681536 1450.9396318274748 480.3564711957043Q1457.9396318274748 484.77313786237096 1461.8562984941414 489.8564711957043Q1465.74518738303 494.96758230681536 1465.9396318274748 500.1620267512598L1465.9396318274748 500.1620267512598L1460.1340762719192 500.1620267512598L1460.1340762719192 472.9675823068154L1480.7451873830303 472.9675823068154L1480.7451873830303 577.9675823068153L1460.1340762719192 577.9675823068153L1460.1340762719192 549.773137862371L1464.3562984941414 550.773137862371Q1464.1340762719192 555.5786934179265 1459.8562984941414 560.6620267512599Q1455.5507429385857 565.773137862371 1448.4396318274746 570.1620267512599Q1441.3562984941414 574.5786934179265 1432.1340762719192 577.273137862371Q1422.9396318274748 579.9675823068153 1412.9396318274748 579.9675823068153ZM1417.7451873830303 560.9675823068153L1417.7451873830303 560.9675823068153Q1430.5507429385857 560.9675823068153 1440.3562984941414 556.273137862371Q1450.1340762719192 551.5786934179265 1455.5507429385857 543.4675823068153Q1460.9396318274746 535.3564711957042 1460.9396318274746 525.3564711957042L1460.9396318274746 525.3564711957042Q1460.9396318274746 515.3564711957042 1455.5507429385857 507.3564711957043Q1450.1340762719192 499.3564711957043 1440.3562984941414 494.6620267512598Q1430.5507429385857 489.96758230681536 1417.7451873830303 489.96758230681536L1417.7451873830303 489.96758230681536Q1405.1340762719192 489.96758230681536 1395.4396318274748 494.6620267512598Q1385.7451873830303 499.3564711957043 1380.24518738303 507.3564711957043Q1374.7451873830303 515.3564711957042 1374.7451873830303 525.3564711957042L1374.7451873830303 525.3564711957042Q1374.7451873830303 535.3564711957042 1380.24518738303 543.4675823068153Q1385.7451873830303 551.5786934179265 1395.4396318274748 556.273137862371Q1405.1340762719192 560.9675823068153 1417.7451873830303 560.9675823068153ZM1596.550742938586 579.9675823068153L1596.550742938586 579.9675823068153Q1578.3562984941414 579.9675823068153 1564.8562984941414 572.9675823068153Q1551.3562984941414 565.9675823068153 1543.9396318274748 553.5786934179265Q1536.5507429385857 541.1620267512599 1536.5507429385857 525.3564711957042L1536.5507429385857 525.3564711957042Q1536.5507429385857 509.3564711957043 1544.3562984941414 497.0786934179265Q1552.1340762719192 484.77313786237096 1565.8562984941414 477.77313786237096Q1579.550742938586 470.7731378623709 1597.3562984941414 470.7731378623709L1597.3562984941414 470.7731378623709Q1608.1340762719192 470.7731378623709 1617.6340762719192 473.4675823068154Q1627.1340762719192 476.1620267512598 1634.2451873830303 480.46758230681536Q1641.3562984941414 484.77313786237096 1645.24518738303 489.8564711957043Q1649.1340762719192 494.96758230681536 1649.1340762719192 499.77313786237096L1649.1340762719192 499.77313786237096L1643.1340762719192 500.1620267512598L1643.1340762719192 429.9675823068154L1663.7451873830303 429.9675823068154L1663.7451873830303 577.9675823068153L1643.1340762719192 577.9675823068153L1643.1340762719192 549.773137862371L1647.1340762719192 550.9675823068153Q1647.1340762719192 555.773137862371 1642.9396318274748 560.773137862371Q1638.7451873830303 565.773137862371 1631.74518738303 570.1620267512599Q1624.7451873830303 574.5786934179265 1615.5507429385857 577.273137862371Q1606.3562984941414 579.9675823068153 1596.550742938586 579.9675823068153ZM1600.7451873830303 561.1620267512599L1600.7451873830303 561.1620267512599Q1613.550742938586 561.1620267512599 1623.24518738303 556.4675823068153Q1632.9396318274748 551.773137862371 1638.4396318274748 543.6620267512599Q1643.9396318274748 535.5786934179265 1643.9396318274748 525.3564711957042L1643.9396318274748 525.3564711957042Q1643.9396318274748 515.1620267512599 1638.4396318274748 507.1620267512598Q1632.9396318274748 499.1620267512598 1623.24518738303 494.46758230681536Q1613.550742938586 489.77313786237096 1600.7451873830303 489.77313786237096L1600.7451873830303 489.77313786237096Q1588.1340762719192 489.77313786237096 1578.3562984941414 494.3564711957043Q1568.5507429385857 498.96758230681536 1563.050742938586 507.0786934179265Q1557.5507429385857 515.1620267512599 1557.5507429385857 525.3564711957042L1557.5507429385857 525.3564711957042Q1557.5507429385857 535.5786934179265 1563.050742938586 543.6620267512599Q1568.5507429385857 551.773137862371 1578.3562984941414 556.4675823068153Q1588.1340762719192 561.1620267512599 1600.7451873830303 561.1620267512599ZM1733.3562984941414 577.9675823068153L1733.3562984941414 577.9675823068153L1733.3562984941414 429.9675823068154L1753.9396318274744 429.9675823068154L1753.9396318274744 500.96758230681536L1747.1340762719192 501.77313786237096Q1749.74518738303 494.3564711957043 1757.0507429385857 487.27313786237096Q1764.3562984941414 480.1620267512598 1775.0507429385857 475.46758230681536Q1785.74518738303 470.7731378623709 1797.9396318274748 470.7731378623709L1797.9396318274748 470.7731378623709Q1813.1340762719192 470.7731378623709 1823.24518738303 476.5786934179265Q1833.3562984941414 482.3564711957043 1838.4396318274744 492.5786934179265Q1843.5507429385857 502.77313786237096 1843.5507429385857 515.5786934179265L1843.5507429385857 515.5786934179265L1843.5507429385857 577.9675823068153L1822.9396318274748 577.9675823068153L1822.9396318274748 518.5786934179265Q1822.9396318274748 509.77313786237096 1818.74518738303 503.1620267512598Q1814.5507429385857 496.5786934179265 1807.3562984941414 492.96758230681536Q1800.1340762719192 489.3564711957043 1791.1340762719192 489.3564711957043L1791.1340762719192 489.3564711957043Q1783.1340762719192 489.3564711957043 1776.3562984941414 492.3564711957043Q1769.5507429385857 495.3564711957043 1764.5507429385857 499.96758230681536Q1759.5507429385857 504.5786934179265 1756.74518738303 510.0786934179265Q1753.9396318274744 515.5786934179265 1753.9396318274744 520.773137862371L1753.9396318274744 520.773137862371L1753.9396318274744 577.9675823068153L1743.74518738303 577.9675823068153Q1739.1340762719192 577.9675823068153 1736.5507429385857 577.9675823068153Q1733.9396318274746 577.9675823068153 1733.3562984941414 577.9675823068153ZM1961.5507429385857 579.9675823068153L1961.5507429385857 579.9675823068153Q1943.74518738303 579.9675823068153 1930.3562984941414 572.9675823068153Q1916.9396318274744 565.9675823068153 1909.6340762719192 553.5786934179265Q1902.3562984941414 541.1620267512599 1902.3562984941414 525.3564711957042L1902.3562984941414 525.3564711957042Q1902.3562984941414 509.3564711957043 1910.0507429385857 497.0786934179265Q1917.7451873830305 484.77313786237096 1931.5507429385857 477.77313786237096Q1945.3562984941414 470.7731378623709 1962.9396318274744 470.7731378623709L1962.9396318274744 470.7731378623709Q1973.9396318274744 470.7731378623709 1983.2451873830305 473.3564711957043Q1992.5507429385857 475.96758230681536 1999.5507429385857 480.3564711957043Q2006.5507429385857 484.77313786237096 2010.4396318274748 489.8564711957043Q2014.3562984941414 494.96758230681536 2014.5507429385857 500.1620267512598L2014.5507429385857 500.1620267512598L2008.7451873830305 500.1620267512598L2008.7451873830305 472.9675823068154L2029.3562984941414 472.9675823068154L2029.3562984941414 577.9675823068153L2008.7451873830305 577.9675823068153L2008.7451873830305 549.773137862371L2012.9396318274744 550.773137862371Q2012.7451873830305 555.5786934179265 2008.4396318274744 560.6620267512599Q2004.1340762719192 565.773137862371 1997.0507429385857 570.1620267512599Q1989.9396318274748 574.5786934179265 1980.7451873830305 577.273137862371Q1971.5507429385857 579.9675823068153 1961.5507429385857 579.9675823068153ZM1966.3562984941414 560.9675823068153L1966.3562984941414 560.9675823068153Q1979.1340762719192 560.9675823068153 1988.9396318274748 556.273137862371Q1998.7451873830305 551.5786934179265 2004.1340762719192 543.4675823068153Q2009.5507429385857 535.3564711957042 2009.5507429385857 525.3564711957042L2009.5507429385857 525.3564711957042Q2009.5507429385857 515.3564711957042 2004.1340762719192 507.3564711957043Q1998.7451873830305 499.3564711957043 1988.9396318274748 494.6620267512598Q1979.1340762719192 489.96758230681536 1966.3562984941414 489.96758230681536L1966.3562984941414 489.96758230681536Q1953.7451873830305 489.96758230681536 1944.0507429385857 494.6620267512598Q1934.3562984941414 499.3564711957043 1928.8562984941414 507.3564711957043Q1923.3562984941414 515.3564711957042 1923.3562984941414 525.3564711957042L1923.3562984941414 525.3564711957042Q1923.3562984941414 535.3564711957042 1928.8562984941414 543.4675823068153Q1934.3562984941414 551.5786934179265 1944.0507429385857 556.273137862371Q1953.7451873830305 560.9675823068153 1966.3562984941414 560.9675823068153ZM2102.3562984941414 577.9675823068153L2102.3562984941414 577.9675823068153L2102.3562984941414 472.9675823068154L2122.939631827475 472.9675823068154L2122.939631827475 500.96758230681536L2116.134076271919 501.77313786237096Q2120.3562984941414 494.3564711957043 2127.3562984941414 487.27313786237096Q2134.3562984941414 480.1620267512598 2144.050742938586 475.46758230681536Q2153.7451873830305 470.7731378623709 2165.3562984941414 470.7731378623709L2165.3562984941414 470.7731378623709Q2181.1340762719187 470.7731378623709 2191.634076271919 476.5786934179265Q2202.134076271919 482.3564711957043 2207.3562984941414 492.5786934179265Q2212.5507429385857 502.77313786237096 2212.5507429385857 515.5786934179265L2212.5507429385857 515.5786934179265L2212.5507429385857 577.9675823068153L2191.939631827475 577.9675823068153L2191.939631827475 518.5786934179265Q2191.939631827475 509.77313786237096 2187.74518738303 503.27313786237096Q2183.5507429385857 496.77313786237096 2176.3562984941414 493.27313786237096Q2169.134076271919 489.77313786237096 2160.134076271919 489.96758230681536L2160.134076271919 489.96758230681536Q2152.134076271919 489.96758230681536 2145.3562984941414 492.7731378623709Q2138.5507429385857 495.5786934179265 2133.5507429385857 500.1620267512598Q2128.5507429385857 504.77313786237096 2125.7451873830305 510.1620267512598Q2122.939631827475 515.5786934179265 2122.939631827475 520.773137862371L2122.939631827475 520.773137862371L2122.939631827475 577.9675823068153L2112.7451873830305 577.9675823068153Q2108.134076271919 577.9675823068153 2105.5507429385857 577.9675823068153Q2102.9396318274744 577.9675823068153 2102.3562984941414 577.9675823068153Z " fill="#e63946" transform="matrix(0.3954711587355752,0,0,0.3954711587355752,0,100.29988374255184)"/></g></svg>